HIERARCHY
ROOT Hips
{
	OFFSET 0.000000 0.000000 0.000000
	CHANNELS 6 Xposition Yposition Zposition Xrotation Yrotation Zrotation
	JOINT LeftUpLeg_virtual
	{
		OFFSET 0.000000 0.000000 0.000000
		CHANNELS 3 Xrotation Yrotation Zrotation
		JOINT LeftUpLeg
		{
			OFFSET 11.394100 -6.187798 -0.413800
			CHANNELS 3 Xrotation Yrotation Zrotation
			JOINT LeftLeg
			{
				OFFSET 0.430247 -32.302673 3.732800
				CHANNELS 3 Xrotation Yrotation Zrotation
				JOINT LeftFoot
				{
					OFFSET -0.430247 -48.264931 -6.423300
					CHANNELS 3 Xrotation Yrotation Zrotation
					JOINT LeftToeBase
					{
						OFFSET 4.230900 -16.068199 23.438400
						CHANNELS 3 Xrotation Yrotation Zrotation
						JOINT LeftToe_End
						{
							OFFSET 4.510700 0.695400 19.974600
							CHANNELS 3 Xrotation Yrotation Zrotation
							End Site
							{
								OFFSET 0 0 0
							}
						}
					}
				}
			}
		}
	}
	JOINT RightUpLeg_virtual
	{
		OFFSET 0.000000 0.000000 0.000000
		CHANNELS 3 Xrotation Yrotation Zrotation
		JOINT RightUpLeg
		{
			OFFSET -11.333700 -6.187798 -0.413800
			CHANNELS 3 Xrotation Yrotation Zrotation
			JOINT RightLeg
			{
				OFFSET -0.430392 -32.302628 3.733000
				CHANNELS 3 Xrotation Yrotation Zrotation
				JOINT RightFoot
				{
					OFFSET 0.430392 -48.264973 -6.423500
					CHANNELS 3 Xrotation Yrotation Zrotation
					JOINT RightToeBase
					{
						OFFSET -4.230900 -16.068199 23.438400
						CHANNELS 3 Xrotation Yrotation Zrotation
						JOINT RightToe_End
						{
							OFFSET -4.510700 0.695400 19.974600
							CHANNELS 3 Xrotation Yrotation Zrotation
							End Site
							{
								OFFSET 0 0 0
							}
						}
					}
				}
			}
		}
	}
	JOINT Spine_virtual
	{
		OFFSET 0.000000 0.000000 0.000000
		CHANNELS 3 Xrotation Yrotation Zrotation
		JOINT Spine
		{
			OFFSET -0.002400 12.777504 0.315300
			CHANNELS 3 Xrotation Yrotation Zrotation
			JOINT Spine1
			{
				OFFSET -0.002067 5.816869 0.032633
				CHANNELS 3 Xrotation Yrotation Zrotation
				JOINT Spine1_split
				{
					OFFSET -0.002067 5.816869 0.032633
					CHANNELS 3 Xrotation Yrotation Zrotation
					JOINT Spine2
					{
						OFFSET -0.002067 5.816869 0.032633
						CHANNELS 3 Xrotation Yrotation Zrotation
						JOINT Neck_virtual
						{
							OFFSET 0.000000 0.000000 0.000000
							CHANNELS 3 Xrotation Yrotation Zrotation
							JOINT Neck
							{
								OFFSET -0.003700 21.199493 -0.826900
								CHANNELS 3 Xrotation Yrotation Zrotation
								JOINT Head
								{
									OFFSET 0.000000 20.442200 4.834800
									CHANNELS 3 Xrotation Yrotation Zrotation
									JOINT HeadTop_End
									{
										OFFSET 0.000000 34.668396 4.968400
										CHANNELS 3 Xrotation Yrotation Zrotation
										End Site
										{
											OFFSET 0 0 0
										}
									}
								}
							}
						}
						JOINT LeftShoulder_virtual
						{
							OFFSET 0.000000 0.000000 0.000000
							CHANNELS 3 Xrotation Yrotation Zrotation
							JOINT LeftShoulder
							{
								OFFSET 3.288150 8.794197 -1.372250
								CHANNELS 3 Xrotation Yrotation Zrotation
								JOINT LeftShoulder_split
								{
									OFFSET 3.288150 8.794197 -1.372250
									CHANNELS 3 Xrotation Yrotation Zrotation
									JOINT LeftArm
									{
										OFFSET 11.953299 -2.279007 -0.146200
										CHANNELS 3 Xrotation Yrotation Zrotation
										JOINT LeftForeArm
										{
											OFFSET 18.448900 0.000000 0.000000
											CHANNELS 3 Xrotation Yrotation Zrotation
											JOINT LeftHand
											{
												OFFSET 29.527798 0.000000 0.000000
												CHANNELS 3 Xrotation Yrotation Zrotation
												End Site
												{
													OFFSET 0 0 0
												}
											}
										}
									}
								}
							}
						}
						JOINT RightShoulder_virtual
						{
							OFFSET 0.000000 0.000000 0.000000
							CHANNELS 3 Xrotation Yrotation Zrotation
							JOINT RightShoulder
							{
								OFFSET -3.249400 8.794197 -1.372250
								CHANNELS 3 Xrotation Yrotation Zrotation
								JOINT RightShoulder_split
								{
									OFFSET -3.249400 8.794197 -1.372250
									CHANNELS 3 Xrotation Yrotation Zrotation
									JOINT RightArm
									{
										OFFSET -11.953299 -2.279007 -0.146200
										CHANNELS 3 Xrotation Yrotation Zrotation
										JOINT RightForeArm
										{
											OFFSET -18.448900 0.000000 0.000000
											CHANNELS 3 Xrotation Yrotation Zrotation
											JOINT RightHand
											{
												OFFSET -29.527802 0.000000 0.000000
												CHANNELS 3 Xrotation Yrotation Zrotation
												End Site
												{
													OFFSET 0 0 0
												}
											}
										}
									}
								}
							}
						}
					}
				}
			}
		}
	}
}
MOTION
Frames: 7
Frame Time: 0.03333333
-2.840362 100.908745 -2.032835 0.000000 0.000000 0.000000 -6.007111 -17.342351 -0.899482 -1.948704 20.846548 6.857901 13.245816 5.312047 1.474822 -7.739908 -1.515934 -1.680357 1.197226 0.675851 -0.236271 0.000000 0.000000 0.000000 -6.270782 -15.089278 -0.706932 -15.614960 -8.319818 -10.126922 18.088281 -12.183680 -1.205616 6.549763 -1.949969 5.219577 -4.199655 -0.208022 -0.354669 0.000000 0.000000 0.000000 -6.493426 -17.994979 -1.328224 8.978073 2.447273 -0.369815 -4.777874 1.515289 -0.737346 0.624655 0.820424 0.117149 0.000000 0.000000 0.000000 -5.529594 3.852184 -1.503431 4.589340 2.358650 0.730473 2.157933 -5.655836 5.266133 0.000000 0.000000 0.000000 -5.839766 3.824599 -1.731326 2.581834 -12.307982 -1.390659 -1.059219 -2.163250 -0.070959 15.467320 6.465824 -72.367377 3.134221 -7.740521 0.881035 0.000000 0.000000 0.000000 -4.483091 3.999253 -1.499843 0.136760 1.450926 4.610625 -3.268810 -3.596016 -1.063146 -2.017030 5.056074 80.373937 2.511247 21.844005 2.219907 0.000000 0.000000 0.000000 
-2.768318 100.849335 -2.054922 0.000000 0.000000 0.000000 -5.994924 -17.554636 -0.821661 -2.269713 20.723392 6.892630 13.959752 5.292921 1.539807 -7.862630 -1.565921 -1.712548 1.308673 0.653867 -0.264758 0.000000 0.000000 0.000000 -6.209619 -15.251242 -0.652944 -15.748978 -8.452789 -10.035211 17.852516 -12.243748 -1.342086 6.831773 -2.025210 5.513907 -4.578841 -0.151629 -0.349728 0.000000 0.000000 0.000000 -6.521179 -18.057335 -1.295762 8.915711 2.434456 -0.374829 -4.808883 1.496919 -0.784336 0.553509 0.917841 0.076041 0.000000 0.000000 0.000000 -5.677828 3.839546 -1.548471 4.662788 2.371885 0.752899 2.196424 -5.622627 5.229233 0.000000 0.000000 0.000000 -5.852649 3.806228 -1.787138 2.548914 -12.238298 -1.559157 -1.074517 -2.110440 0.022523 15.512886 6.853608 -72.062307 2.945525 -7.593206 0.649528 0.000000 0.000000 0.000000 -4.480751 3.994745 -1.547610 0.098685 1.563045 4.803666 -3.174236 -3.529542 -1.082288 -2.018427 5.019723 80.664520 2.553117 22.334211 2.241269 0.000000 0.000000 0.000000 
-2.651981 100.716988 -2.117867 0.000000 0.000000 0.000000 -5.873025 -17.681613 -0.798721 -3.214477 20.444360 7.175065 15.616941 5.089365 1.656733 -8.114803 -1.860334 -1.643685 1.259927 0.617566 -0.352310 0.000000 0.000000 0.000000 -6.125740 -15.252415 -0.684722 -15.861296 -8.903059 -9.881383 17.746305 -12.165207 -1.511774 6.646329 -1.952326 5.969203 -4.534136 -0.032835 -0.232411 0.000000 0.000000 0.000000 -6.404896 -18.075503 -1.281376 8.841488 2.388542 -0.330828 -4.838078 1.466708 -0.866677 0.540341 0.950211 0.074309 0.000000 0.000000 0.000000 -5.820453 3.814060 -1.623814 4.724294 2.393085 0.727458 2.164264 -5.655941 5.342224 0.000000 0.000000 0.000000 -5.861578 3.775301 -1.852269 2.487114 -12.127113 -1.800614 -1.107599 -2.187510 0.086302 15.547835 7.161163 -71.428493 3.009224 -7.238295 0.534377 0.000000 0.000000 0.000000 -4.473219 3.974534 -1.615158 0.036035 1.620062 5.203685 -3.216563 -3.536996 -1.236543 -2.113024 5.370535 80.825494 2.768155 22.839447 2.303247 0.000000 0.000000 0.000000 
-2.485148 100.534286 -2.296194 0.000000 0.000000 0.000000 -5.659647 -17.695137 -0.802598 -4.621096 20.125882 7.590327 17.804853 4.801147 1.778836 -8.457477 -2.356752 -1.414744 1.092690 0.559488 -0.418847 0.000000 0.000000 0.000000 -6.033049 -15.088497 -0.766187 -16.003323 -9.566366 -9.729407 17.679695 -11.933912 -1.715614 6.059000 -1.759063 6.510818 -3.996048 0.128189 -0.012514 0.000000 0.000000 0.000000 -6.147522 -18.061897 -1.295849 8.782511 2.316572 -0.262045 -4.857217 1.438092 -0.961457 0.580937 1.014111 0.115209 0.000000 0.000000 0.000000 -5.943485 3.785471 -1.706240 4.759871 2.416053 0.675010 2.075958 -5.742978 5.576502 0.000000 0.000000 0.000000 -5.856637 3.740784 -1.908599 2.404436 -11.951080 -2.101341 -1.066977 -2.409073 0.121091 15.458236 7.217924 -70.620235 3.284027 -6.764184 0.484392 0.000000 0.000000 0.000000 -4.459559 3.948573 -1.685571 -0.034705 1.614548 5.730911 -3.379787 -3.523981 -1.475618 -2.261692 5.999226 80.729421 3.144237 23.256289 2.425550 0.000000 0.000000 0.000000 
-2.269937 100.344238 -2.602612 0.000000 0.000000 0.000000 -5.374392 -17.645164 -0.799972 -6.116069 19.905220 7.965047 20.005716 4.546535 1.873385 -8.892105 -2.898969 -0.951889 0.916505 0.477355 -0.438982 0.000000 0.000000 0.000000 -5.907350 -14.874564 -0.828494 -16.162258 -10.309074 -9.610260 17.525012 -11.546562 -1.959647 5.263804 -1.477221 7.050508 -3.281970 0.289777 0.295605 0.000000 0.000000 0.000000 -5.813684 -18.067066 -1.330076 8.793793 2.230558 -0.227616 -4.871398 1.424030 -1.042154 0.684911 1.127080 0.168742 0.000000 0.000000 0.000000 -6.030046 3.766507 -1.768256 4.737604 2.440683 0.649177 1.922936 -5.812710 5.871529 0.000000 0.000000 0.000000 -5.855503 3.716673 -1.934833 2.318504 -11.695314 -2.414920 -0.974068 -2.729205 0.243785 15.193711 6.996670 -69.777937 3.656415 -6.320378 0.421074 0.000000 0.000000 0.000000 -4.442535 3.924815 -1.735013 -0.111499 1.520160 6.315065 -3.606382 -3.412201 -1.683331 -2.403551 6.756791 80.302862 3.655241 23.473243 2.631858 0.000000 0.000000 0.000000 
-2.005642 100.164833 -3.010025 0.000000 0.000000 0.000000 -5.044819 -17.618079 -0.755917 -7.367616 19.949688 8.135210 21.713603 4.421934 1.899602 -9.404938 -3.316335 -0.269392 0.862815 0.388289 -0.444650 0.000000 0.000000 0.000000 -5.730264 -14.789853 -0.829519 -16.477304 -11.025759 -9.595192 17.223277 -11.032314 -2.231280 4.672441 -1.157570 7.483301 -2.778546 0.400078 0.612736 0.000000 0.000000 0.000000 -5.499086 -18.209363 -1.379237 8.922566 2.140137 -0.285077 -4.896302 1.434845 -1.076514 0.770873 1.252110 0.241985 0.000000 0.000000 0.000000 -6.076012 3.761830 -1.777249 4.638022 2.478600 0.693297 1.715331 -5.794659 6.155036 0.000000 0.000000 0.000000 -5.862147 3.711834 -1.909626 2.248922 -11.324096 -2.689401 -0.877019 -3.011691 0.433160 14.724843 6.584264 -69.011876 3.949515 -6.045096 0.243462 0.000000 0.000000 0.000000 -4.422333 3.913013 -1.737582 -0.194641 1.351890 6.880703 -3.862484 -3.259195 -1.817196 -2.494838 7.465549 79.494960 4.258194 23.429180 2.936637 0.000000 0.000000 0.000000 
-1.737564 100.020180 -3.425079 0.000000 0.000000 0.000000 -4.772174 -17.850136 -0.666925 -8.074747 20.345781 8.057088 22.550138 4.432875 1.882890 -9.891535 -3.511091 0.473978 0.882305 0.306523 -0.449997 0.000000 0.000000 0.000000 -5.575696 -15.009091 -0.762623 -17.170448 -11.615634 -9.698314 16.831521 -10.438994 -2.460171 4.699419 -0.852194 7.747005 -2.676504 0.385646 0.878303 0.000000 0.000000 0.000000 -5.316184 -18.540383 -1.419271 9.244496 2.046830 -0.500596 -4.943137 1.471420 -1.034976 0.804797 1.323753 0.334696 0.000000 0.000000 0.000000 -6.080046 3.772138 -1.705414 4.449768 2.548661 0.840260 1.447691 -5.632169 6.357760 0.000000 0.000000 0.000000 -5.879665 3.727919 -1.812491 2.194306 -10.829189 -2.887827 -0.770952 -3.251066 0.628796 14.074225 6.132551 -68.385240 4.011465 -5.945712 -0.126174 0.000000 0.000000 0.000000 -4.415994 3.915572 -1.661972 -0.293563 1.146072 7.396703 -4.090072 -3.115503 -1.856062 -2.524916 8.045157 78.388613 4.897730 23.166450 3.343149 0.000000 0.000000 0.000000 
